<?xml version="1.0" encoding="UTF-8" standalone="no"?>
<svg
   xmlns:dc="http://purl.org/dc/elements/1.1/"
   xmlns:cc="http://creativecommons.org/ns#"
   xmlns:rdf="http://www.w3.org/1999/02/22-rdf-syntax-ns#"
   xmlns:svg="http://www.w3.org/2000/svg"
   xmlns="http://www.w3.org/2000/svg"
   xmlns:sodipodi="http://sodipodi.sourceforge.net/DTD/sodipodi-0.dtd"
   xmlns:inkscape="http://www.inkscape.org/namespaces/inkscape"
   width="1280"
   height="720"
   overflow="hidden"
   version="1.1"
   id="svg65"
   sodipodi:docname="prebaked-sketches.svg"
   inkscape:version="1.0.1 (3bc2e813f5, 2020-09-07)">
  <metadata
     id="metadata69">
    <rdf:RDF>
      <cc:Work
         rdf:about="">
        <dc:format>image/svg+xml</dc:format>
        <dc:type
           rdf:resource="http://purl.org/dc/dcmitype/StillImage" />
      </cc:Work>
    </rdf:RDF>
  </metadata>
  <sodipodi:namedview
     pagecolor="#ffffff"
     bordercolor="#666666"
     borderopacity="1"
     objecttolerance="10"
     gridtolerance="10"
     guidetolerance="10"
     inkscape:pageopacity="0"
     inkscape:pageshadow="2"
     inkscape:window-width="2943"
     inkscape:window-height="1292"
     id="namedview67"
     showgrid="false"
     inkscape:zoom="1.844764"
     inkscape:cx="557.82764"
     inkscape:cy="259.50389"
     inkscape:window-x="0"
     inkscape:window-y="0"
     inkscape:window-maximized="0"
     inkscape:current-layer="svg65" />
  <defs
     id="defs5">
    <clipPath
       id="clip0">
      <rect
         x="0"
         y="0"
         width="1280"
         height="720"
         id="rect2" />
    </clipPath>
  </defs>
  <rect
     x="0"
     y="0"
     width="1280"
     height="720"
     fill="#ffffff"
     id="rect7" />
  <path
     d="m 828.5,201.5 8,-32 h 38 l -8,32 z"
     stroke="#000000"
     stroke-width="3"
     stroke-miterlimit="8"
     fill="#d0cece"
     fill-rule="evenodd"
     id="path9" />
  <path
     d="m 186.5,147.167 c 0,-6.996 5.671,-12.667 12.667,-12.667 h 50.666 c 6.996,0 12.667,5.671 12.667,12.667 v 51.666 c 0,6.996 -5.671,12.667 -12.667,12.667 h -50.666 c -6.996,0 -12.667,-5.671 -12.667,-12.667 z"
     stroke="#7f7f7f"
     stroke-width="1.33333"
     stroke-miterlimit="8"
     fill="none"
     fill-rule="evenodd"
     id="path11" />
  <text
     font-family="Consolas, Consolas_MSFontService, sans-serif"
     font-weight="400"
     font-size="15px"
     id="text13"
     x="148.894"
     y="229">sketchRectangle(l,w)</text>
  <rect
     x="198.5"
     y="155.5"
     width="52"
     height="34"
     stroke="#5f8fa3"
     stroke-width="3"
     stroke-miterlimit="8"
     fill="none"
     id="rect15" />
  <path
     d="m 612.5,149.167 c 0,-6.996 5.671,-12.667 12.667,-12.667 h 50.666 c 6.996,0 12.667,5.671 12.667,12.667 v 50.666 c 0,6.996 -5.671,12.667 -12.667,12.667 h -50.666 c -6.996,0 -12.667,-5.671 -12.667,-12.667 z"
     stroke="#7f7f7f"
     stroke-width="1.33333"
     stroke-miterlimit="8"
     fill="none"
     fill-rule="evenodd"
     id="path17" />
  <text
     font-family="Consolas, Consolas_MSFontService, sans-serif"
     font-weight="400"
     font-size="15px"
     id="text19"
     x="589.58899"
     y="232">sketchCircle(r)</text>
  <path
     d="m 630.5,177 c 0,-10.77 8.954,-19.5 20,-19.5 11.046,0 20,8.73 20,19.5 0,10.77 -8.954,19.5 -20,19.5 -11.046,0 -20,-8.73 -20,-19.5 z"
     stroke="#5f8fa3"
     stroke-width="3"
     stroke-miterlimit="8"
     fill="none"
     fill-rule="evenodd"
     id="path21" />
  <path
     d="m 191.5,172.699 58.8244,-0.19916"
     stroke="#5f8fa3"
     stroke-width="0.666667"
     stroke-miterlimit="8"
     stroke-dasharray="5.33333, 2"
     fill="none"
     fill-rule="evenodd"
     id="path23" />
  <path
     d="m 223.5,145.5 v 55.2"
     stroke="#5f8fa3"
     stroke-width="0.666667"
     stroke-miterlimit="8"
     stroke-dasharray="5.33333, 2"
     fill="none"
     fill-rule="evenodd"
     id="path25" />
  <path
     d="m 617.5,176.699 58.8244,-0.19916"
     stroke="#5f8fa3"
     stroke-width="0.666667"
     stroke-miterlimit="8"
     stroke-dasharray="5.33333, 2"
     fill="none"
     fill-rule="evenodd"
     id="path27" />
  <path
     d="m 649.5,149.5 v 55.2"
     stroke="#5f8fa3"
     stroke-width="0.666667"
     stroke-miterlimit="8"
     stroke-dasharray="5.33333, 2"
     fill="none"
     fill-rule="evenodd"
     id="path29" />
  <path
     d="m 391.5,149.167 c 0,-6.996 5.671,-12.667 12.667,-12.667 h 50.666 c 6.996,0 12.667,5.671 12.667,12.667 v 50.666 c 0,6.996 -5.671,12.667 -12.667,12.667 h -50.666 c -6.996,0 -12.667,-5.671 -12.667,-12.667 z"
     stroke="#7f7f7f"
     stroke-width="1.33333"
     stroke-miterlimit="8"
     fill="none"
     fill-rule="evenodd"
     id="path31" />
  <text
     font-family="Consolas, Consolas_MSFontService, sans-serif"
     font-weight="400"
     font-size="15px"
     id="text35"
     x="325.827"
     y="232">sketchRoundedRectangle(l,w,r<tspan
   font-size="15px"
   x="549.82703"
   y="232"
   id="tspan33">)</tspan></text>
  <path
     d="m 396.5,174.699 58.8244,-0.19916"
     stroke="#5f8fa3"
     stroke-width="0.666667"
     stroke-miterlimit="8"
     stroke-dasharray="5.33333, 2"
     fill="none"
     fill-rule="evenodd"
     id="path37" />
  <path
     d="m 428.5,146.5 v 55.2"
     stroke="#5f8fa3"
     stroke-width="0.666667"
     stroke-miterlimit="8"
     stroke-dasharray="5.33333, 2"
     fill="none"
     fill-rule="evenodd"
     id="path39" />
  <path
     d="m 404.5,171.46 c 0,-8.262 6.698,-14.96 14.96,-14.96 h 21.08 c 8.262,0 14.96,6.698 14.96,14.96 v 10.08 c 0,8.262 -6.698,14.96 -14.96,14.96 h -21.08 c -8.262,0 -14.96,-6.698 -14.96,-14.96 z"
     stroke="#5f8fa3"
     stroke-width="3"
     stroke-miterlimit="8"
     fill="none"
     fill-rule="evenodd"
     id="path41" />
  <path
     d="m 649.72918,177.67005 3.87276,-3.66691 -0.45837,-0.4841 -3.87275,3.66691 z m 5.32504,-5.042 3.87275,-3.66691 -0.45836,-0.4841 -3.87276,3.66691 z m 6.09638,-0.72278 3.0589,-8.40497 -8.55931,2.5958 z"
     fill="#5f8fa3"
     id="path43" />
  <path
     d="m 443.72297,168.87578 3.96444,-3.56759 -0.44595,-0.49556 -3.96443,3.56759 z m 6.64906,-1.05073 3.27097,-8.32471 -8.62235,2.37805 z"
     fill="#5f8fa3"
     id="path45" />
  <path
     d="m 411.168,150.202 5.334,0.027 -0.004,0.667 -5.333,-0.028 z m 7.334,0.038 5.333,0.028 -0.004,0.667 -5.333,-0.028 z m 7.333,0.038 5.333,0.028 -0.003,0.667 -5.334,-0.028 z m 7.333,0.039 5.333,0.028 -0.003,0.666 -5.333,-0.028 z m 7.333,0.038 5.334,0.028 -0.004,0.667 -5.333,-0.028 z m 7.334,0.038 1.341,0.007 -0.003,0.667 -1.342,-0.007 z m -35.356,4.149 -7.979,-4.042 8.021,-3.958 z m 35.383,-7.815 7.979,4.042 -8.021,3.958 z"
     fill="#5f8fa3"
     id="path47" />
  <path
     d="m 205.168,148.202 5.334,0.027 -0.004,0.667 -5.333,-0.028 z m 7.334,0.038 5.333,0.028 -0.004,0.667 -5.333,-0.028 z m 7.333,0.038 5.333,0.028 -0.003,0.667 -5.334,-0.028 z m 7.333,0.039 5.333,0.028 -0.003,0.666 -5.333,-0.028 z m 7.333,0.038 5.334,0.028 -0.004,0.667 -5.333,-0.028 z m 7.334,0.038 1.341,0.007 -0.003,0.667 -1.342,-0.007 z m -35.356,4.149 -7.979,-4.042 8.021,-3.958 z m 35.383,-7.815 7.979,4.042 -8.021,3.958 z"
     fill="#5f8fa3"
     id="path49" />
  <path
     d="m 396.83335,187.07633 2e-5,-5.33333 h -0.66667 l -2e-5,5.33333 z m 2e-5,-7.33333 2e-5,-5.3333 h -0.66667 l -2e-5,5.3333 z m 2e-5,-7.3333 2e-5,-5.3334 h -0.66667 l -2e-5,5.3334 z m 2e-5,-7.3334 10e-6,-2.9099 h -0.66667 l -10e-6,2.9099 z m -4.33339,20.66669 3.99998,8.00001 4.00002,-7.99999 z m 8.00006,-22.24319 -3.99998,-8.0001 -4.00002,8 z"
     fill="#5f8fa3"
     id="path51" />
  <path
     d="m 191.83335,185.07633 2e-5,-5.33333 h -0.66667 l -2e-5,5.33333 z m 2e-5,-7.33333 2e-5,-5.3333 h -0.66667 l -2e-5,5.3333 z m 2e-5,-7.3333 2e-5,-5.3334 h -0.66667 l -1e-5,5.3334 z m 2e-5,-7.3334 1e-5,-2.9099 h -0.66667 l -1e-5,2.9099 z m -4.33339,20.66669 3.99998,8.00001 4.00002,-7.99999 z m 8.00006,-22.24319 -3.99998,-8.0001 -4.00002,8 z"
     fill="#5f8fa3"
     id="path53" />
  <path
     d="m 806.5,149.167 c 0,-6.996 5.671,-12.667 12.667,-12.667 h 50.666 c 6.996,0 12.667,5.671 12.667,12.667 v 50.666 c 0,6.996 -5.671,12.667 -12.667,12.667 h -50.666 c -6.996,0 -12.667,-5.671 -12.667,-12.667 z"
     stroke="#7f7f7f"
     stroke-width="1.33333"
     stroke-miterlimit="8"
     fill="none"
     fill-rule="evenodd"
     id="path55" />
  <path
     d="m 811.5,184.5 7.75,-31 h 39.25 l -7.75,31 z"
     stroke="#5f8fa3"
     stroke-width="3"
     stroke-miterlimit="8"
     fill="none"
     fill-rule="evenodd"
     id="path57" />
  <path
     d="m 825.331,159.107 3.67,3.869 -0.483,0.459 -3.671,-3.869 z m 5.047,5.32 1.386,1.46 -0.484,0.459 -1.386,-1.461 z m -7.273,-1.37 -2.605,-8.557 8.408,3.05 z m 10.401,-0.661 2.605,8.557 -8.409,-3.051 z"
     fill="#5f8fa3"
     id="path59" />
  <text
     font-family="Consolas, Consolas_MSFontService, sans-serif"
     font-weight="400"
     font-size="15px"
     id="text61"
     x="770.659"
     y="234">sketchFaceOffset(f,t)</text>
</svg>
