<svg enable-background="new 0 0 32 32" height="100" viewBox="0 0 32 32" width="100" xmlns="http://www.w3.org/2000/svg"><path d="m29.8 15.1c0-1.8 0-3.7 0-5.5 0-1.2 0-2.3 0-3.5 0-.9.1-2.1-.1-3s-.8-.9-1.4-1c-1.7-.1-3.5 0-5.2 0-3.8-.1-7.6-.1-11.5-.1-2 0-4 .1-6 .2-.8.1-2-.1-2.6.6-.4.4-.4 1.1-.5 1.7-.2 1.3-.2 2.7-.2 4-.1 3-.1 5.9-.2 8.9-.1 2.4 0 4.8 0 7.2 0 1.3-.3 3.5.6 4.5s2.9.6 4 .6c2 .1 4.1.1 6.1.2 3.8.1 7.6-.1 11.4.1 1.5.1 3 0 4.5-.3.9-.2 1.1-.8 1.2-1.8.3-4.3 0-8.6-.1-12.8zm-25.3-11.7c.4 0 .7-.1 1.1-.1 1.5-.1 3-.2 4.4-.2h9.5 4.1c1.4 0 3-.2 4.4 0 .7.1.7.2.8 1 .2.9.2 1.8.2 2.6v.4c-8.6-.4-17.2-.5-25.8-.1 0-.6.1-1.2.1-1.8.1-1.2.3-1.7 1.2-1.8zm24.6 19.6c0 1.5 0 3-.1 4.4-.1 1.1-.4 1-1.2 1.2s-1.6.3-2.4.3c-3 .1-6-.1-9-.1-3.5 0-7-.1-10.6-.3-1.1 0-2.8.1-2.9-1.6 0-1 0-2-.1-3-.1-2.2-.1-4.3 0-6.5.3-3.2.2-6.4.3-9.6 8.7-.3 17.3-.3 25.9.1 0 1.5 0 3-.1 4.5.1 3.6.3 7.1.2 10.6z"/><path d="m5.2 6.3c.5-.1 1.1-.5 1-1.2s-.4-1.1-1-1.2c-.5 0-.9.6-1 1.3s.5 1.2 1 1.1zm-.3-1.1c0-.2.1-.5.3-.5s.3.1.3.3c.1.3-.1.4-.3.5-.1 0-.2 0-.3 0-.1-.1-.1-.1 0-.3z"/><path d="m7.9 6.3c.6.1 1-.5 1.1-1.2 0-.8-.4-1.3-1-1.3-.5 0-1 .5-1.1 1.1 0 .8.5 1.3 1 1.4zm-.3-1.4c0-.2.3-.3.5-.3s.4.1.3.4c0 .3-.2.5-.4.4-.3-0-.5-.2-.4-.5z"/><path d="m10.8 6.2c.5 0 1-.6 1-1.3s-.5-1.3-1-1.2c-.6 0-1 .6-1 1.3-.2.8.4 1.3 1 1.2zm-.1-1.7c.5 0 .5.8.1.9-.2 0-.5-.1-.5-.3 0-.3.2-.6.4-.6z"/><path d="m12.5 11.4c-.9-.9-2.1-.1-2.9.6-1.5 1.3-2.7 2.9-4.1 4.4-2.1 2.4.4 4.9 1.9 6.3 1 .9 2.2 2.2 3.4 2.7.8.3 2.1-.1 2.1-1.4.1-1.3-1.5-2.5-2.2-3.3-.4-.5-.8-.9-1.3-1.3-.2-.2-.4-.3-.6-.5-.4-.4-.6-.3-.3-.8.7-1.4 6-4.6 4-6.7zm-4.7 7.6c.5.7 1.5 1.3 2.1 1.9.5.5.9 1 1.3 1.5.2.2.7.6.8.9.4 1.5-.6 1.4-1.2 1.2l.2-.2c.1-.1.2-.3.1-.5s-.3-.3-.4-.1c-.1.1-.2.2-.4.3 0 0-.1.1-.1.2-.1-.1-.3-.2-.4-.3 0 0 .1-.1.1-.1.4-.3 0-1-.3-.7-.1.1-.3.2-.4.4-.2-.1-.3-.3-.5-.4.1-.1.2-.1.3-.2.4-.2 0-.9-.3-.7-.2.1-.3.2-.5.3-.1-.1-.2-.2-.3-.3.1 0 .1-.1.2-.1.4-.3 0-.9-.3-.7-.1.1-.2.2-.4.3-.1-.1-.3-.3-.5-.4.1-.2.2-.3.3-.3.2-.1.2-.4.1-.5-.1-.2-.3-.2-.4-.1-.2.1-.3.2-.4.4-.1-.1-.2-.3-.3-.4.1-.1.2-.2.3-.3.3-.3 0-1-.3-.7-.1.1-.3.2-.4.3-.1-.3-.3-.5-.3-.8h.3c.2-.1.2-.9-.2-.9-.1 0-.2 0-.3 0 0-.2.1-.5.3-.7.1.2.2.3.4.4.1.1.4 0 .4-.1.1-.2 0-.4-.1-.5.1 0-.1-.1-.1-.1s-.1-.1-.1-.2c0 0 0-.1-.1-.1.1-.1.2-.2.3-.3.1.1.2.3.3.5.2.1.4.1.5 0 .1-.2.1-.4 0-.6s-.2-.3-.3-.4c.2-.2.3-.3.5-.5.1.1.2.3.4.4.3.4.7-.2.5-.6-.2-.2-.3-.3-.4-.4.2-.2.4-.4.5-.6.1.2.2.3.4.5.3.4.7-.2.5-.6-.2-.1-.3-.2-.4-.4.1-.1.2-.2.2-.2l.3-.3c.1.1.1.2.2.3.1.2.3.3.4.1.1-.1.2-.4.1-.5s-.1-.3-.2-.4l.4-.4.3.3c.3.4.7-.2.5-.6-0 .1-0 0-.1-.1.4-.2.7-.2 1 .4.3.8 0 1-.4 1.5-1.1 1.4-2.4 2.3-3.5 3.6-.4.5-.6 1-.2 1.6z"/><path d="m24.6 13.8c-1-.9-2.2-2.2-3.4-2.7-.8-.3-2.1.1-2.1 1.4-.1 1.3 1.5 2.5 2.2 3.3.4.5.8.9 1.3 1.3.2.2.4.3.6.5.4.4.6.3.3.8-.7 1.3-6 4.6-4 6.7.9.9 2.1.1 2.9-.6 1.5-1.3 2.7-2.9 4.1-4.4 2.2-2.3-.4-4.9-1.9-6.3zm1.5 5.8c-1.1 1.1-2 2.4-3.1 3.4-.5.4-.9 1-1.5 1.3-.6.4-1.1.6-1.4-.2-.1-.3-.2-.6-.1-.8l.5.5c.1.1.4 0 .4-.1.1-.2 0-.4-.1-.5s-.3-.2-.4-.4c0 0 .1-.1.1-.1.1-.1.2-.2.3-.3.1.2.3.3.4.5.1.1.3.2.5 0 .1-.1.1-.4 0-.6-.1-.1-.3-.3-.4-.5.2-.2.3-.3.5-.5.1.2.3.4.4.6.3.4.7-.2.5-.6-.1-.2-.2-.3-.4-.5.1-.1.3-.2.4-.4.1.1.2.3.3.5s.3.1.5 0c.1-.2.1-.4 0-.6-.1-.1-.2-.3-.3-.4.2-.2.3-.3.5-.5.1.1.2.2.2.3.3.4.7-.2.5-.6-.1-.1-.1-.2-.2-.2.1-.2.2-.3.2-.5h.4c.2 0 .3-.2.3-.4s-.1-.4-.3-.4-.4 0-.6 0c-.1-.1-.2-.2-.3-.4.1-.1.2-.1.3-.2.2-.1.2-.4.1-.5-.1-.2-.3-.2-.4-.1-.2.1-.4.2-.6.3-.1-.1-.2-.2-.3-.2.1-.1.2-.1.3-.2.2-.1.2-.4.1-.5-.1-.2-.3-.2-.4-.1-.2.1-.3.2-.5.3-.1-.1-.2-.2-.3-.3 0 0-.1-.1-.1-.1.1-.1.2-.2.4-.2.2-.1.2-.4.1-.5-.1-.2-.3-.2-.4-.1-.2.1-.4.2-.5.4-.1-.1-.2-.3-.4-.4.1-.1.1-.1.2-.1.2-.1.3-.3.2-.5 0-.2-.2-.4-.4-.3s-.4.2-.5.4c-.1-.1-.2-.2-.3-.3.1-.1.2-.2.3-.2.4-.2 0-.9-.3-.7-.1.1-.2.2-.3.3-.3-1.4.8-1.2 1.3-1 1.1.5 2.2 1.7 3.2 2.6.8.7 3.1 2.7 1.4 4.6z"/><path d="m16.8 11c-.9 0-1.2 1-1.5 2-.6 2.2-1 4.4-1.3 6.7-.2 1.2-1.3 6.3.8 5.9.8-.1 1.4-1.2 1.6-2.1.6-1.9.9-4 1.2-5.9.2-1 .3-1.9.5-2.9.1-.7.4-1.5.3-2.2-.2-1.1-.8-1.5-1.6-1.5zm0 7.4c-.2.9-.3 1.7-.5 2.6-.2 1.1-.4 3.3-1.5 3.3-.6 0-.6-.1-.6-.6.1 0 .2 0 .2.1.2.1.3-.1.4-.3 0-.2-.1-.4-.2-.5-.2 0-.3 0-.4 0 0-.1 0-.3 0-.4.1 0 .3.1.4.1.4 0 .4-.8 0-.8-.1 0-.2 0-.3 0 0-.1 0-.2 0-.2v-.1c.1 0 .3.1.4.1.4.1.6-.6.2-.8-.2 0-.3-.1-.5-.1 0-.2.1-.5.1-.7.2 0 .4.1.5.2.2.1.3-.1.4-.3 0-.2-.1-.4-.2-.5-.2-.1-.4-.1-.6-.2 0-.2.1-.3.1-.5.1 0 .3.1.4.1.4.1.6-.7.2-.8-.2 0-.3-.1-.5-.1 0-.2.1-.4.1-.6.1 0 .2.1.3.1.4.1.6-.6.2-.8-.1 0-.2-.1-.3-.1 0-.1 0-.2.1-.3.2 0 .4.1.5.1.2 0 .3-.1.4-.3 0-.2-.1-.4-.2-.5-.2-.1-.4-.1-.6-.2 0-.2.1-.3.1-.5.1 0 .2.1.4.1.4.1.6-.6.2-.8-.1 0-.2-.1-.4-.1 0-.1.1-.2.1-.3.1 0 .2.1.3.1.2.1.3-.1.4-.3 0-.2-.1-.4-.2-.5-.1 0-.2-.1-.3-.1 0-.1.1-.2.1-.3.1.1.2.1.3.1.2 0 .3-.1.4-.3 0-.2-.1-.5-.2-.5h-.1c.1-.1.2-.2.4-.2 1.5 0 .1 5.7 0 6.6z"/></svg>