<svg height='100px' width='100px'  fill="#000000" xmlns="http://www.w3.org/2000/svg" xmlns:xlink="http://www.w3.org/1999/xlink" version="1.1" x="0px" y="0px" viewBox="0 0 32 32" style="enable-background:new 0 0 32 32;" xml:space="preserve"><g><path d="M29.8,15.1c0-1.8,0-3.7,0-5.5c0-1.2,0-2.3,0-3.5c0-0.9,0.1-2.1-0.1-3c-0.2-0.9-0.8-0.9-1.4-1c-1.7-0.1-3.5,0-5.2,0   C19.3,2,15.5,2,11.6,2c-2,0-4,0.1-6,0.2C4.8,2.3,3.6,2.1,3,2.8C2.6,3.2,2.6,3.9,2.5,4.5C2.3,5.8,2.3,7.2,2.3,8.5   c-0.1,3-0.1,5.9-0.2,8.9c-0.1,2.4,0,4.8,0,7.2c0,1.3-0.3,3.5,0.6,4.5c0.9,1,2.9,0.6,4,0.6c2,0.1,4.1,0.1,6.1,0.2   c3.8,0.1,7.6-0.1,11.4,0.1c1.5,0.1,3,0,4.5-0.3c0.9-0.2,1.1-0.8,1.2-1.8C30.2,23.6,29.9,19.3,29.8,15.1z M4.5,3.4   c0.4,0,0.7-0.1,1.1-0.1c1.5-0.1,3-0.2,4.4-0.2c3.2,0,6.4,0,9.5,0c1.4,0,2.7,0,4.1,0c1.4,0,3-0.2,4.4,0c0.7,0.1,0.7,0.2,0.8,1   C29,5,29,5.9,29,6.7c0,0.1,0,0.2,0,0.4C20.4,6.7,11.8,6.6,3.2,7c0-0.6,0.1-1.2,0.1-1.8C3.4,4,3.6,3.5,4.5,3.4z M29.1,23   c0,1.5,0,3-0.1,4.4c-0.1,1.1-0.4,1-1.2,1.2c-0.8,0.2-1.6,0.3-2.4,0.3c-3,0.1-6-0.1-9-0.1c-3.5,0-7-0.1-10.6-0.3   c-1.1,0-2.8,0.1-2.9-1.6c0-1,0-2-0.1-3c-0.1-2.2-0.1-4.3,0-6.5C3.1,14.2,3,11,3.1,7.8C11.8,7.5,20.4,7.5,29,7.9c0,1.5,0,3-0.1,4.5   C29,16,29.2,19.5,29.1,23z"></path><path d="M5.2,6.3c0.5-0.1,1.1-0.5,1-1.2C6.1,4.4,5.8,4,5.2,3.9c-0.5,0-0.9,0.6-1,1.3C4.1,5.9,4.7,6.4,5.2,6.3z M4.9,5.2   C4.9,5,5,4.7,5.2,4.7c0.2,0,0.3,0.1,0.3,0.3c0.1,0.3-0.1,0.4-0.3,0.5c-0.1,0-0.2,0-0.3,0C4.8,5.4,4.8,5.4,4.9,5.2z"></path><path d="M7.9,6.3c0.6,0.1,1-0.5,1.1-1.2C9,4.3,8.6,3.8,8,3.8C7.5,3.8,7,4.3,6.9,4.9C6.9,5.7,7.4,6.2,7.9,6.3z M7.6,4.9   c0-0.2,0.3-0.3,0.5-0.3c0.2,0,0.4,0.1,0.3,0.4c0,0.3-0.2,0.5-0.4,0.4C7.7,5.4,7.5,5.2,7.6,4.9z"></path><path d="M10.8,6.2c0.5,0,1-0.6,1-1.3c0-0.7-0.5-1.3-1-1.2c-0.6,0-1,0.6-1,1.3C9.6,5.8,10.2,6.3,10.8,6.2z M10.7,4.5   c0.5,0,0.5,0.8,0.1,0.9c-0.2,0-0.5-0.1-0.5-0.3C10.3,4.8,10.5,4.5,10.7,4.5z"></path><path d="M12.5,11.4c-0.9-0.9-2.1-0.1-2.9,0.6c-1.5,1.3-2.7,2.9-4.1,4.4c-2.1,2.4,0.4,4.9,1.9,6.3c1,0.9,2.2,2.2,3.4,2.7   c0.8,0.3,2.1-0.1,2.1-1.4c0.1-1.3-1.5-2.5-2.2-3.3c-0.4-0.5-0.8-0.9-1.3-1.3c-0.2-0.2-0.4-0.3-0.6-0.5c-0.4-0.4-0.6-0.3-0.3-0.8   C9.2,16.7,14.5,13.5,12.5,11.4z M7.8,19c0.5,0.7,1.5,1.3,2.1,1.9c0.5,0.5,0.9,1,1.3,1.5c0.2,0.2,0.7,0.6,0.8,0.9   c0.4,1.5-0.6,1.4-1.2,1.2c0.1-0.1,0.1-0.1,0.2-0.2c0.1-0.1,0.2-0.3,0.1-0.5c-0.1-0.2-0.3-0.3-0.4-0.1c-0.1,0.1-0.2,0.2-0.4,0.3   c0,0-0.1,0.1-0.1,0.2c-0.1-0.1-0.3-0.2-0.4-0.3c0,0,0.1-0.1,0.1-0.1c0.4-0.3,0-1-0.3-0.7c-0.1,0.1-0.3,0.2-0.4,0.4   c-0.2-0.1-0.3-0.3-0.5-0.4c0.1-0.1,0.2-0.1,0.3-0.2c0.4-0.2,0-0.9-0.3-0.7c-0.2,0.1-0.3,0.2-0.5,0.3c-0.1-0.1-0.2-0.2-0.3-0.3   c0.1,0,0.1-0.1,0.2-0.1c0.4-0.3,0-0.9-0.3-0.7c-0.1,0.1-0.2,0.2-0.4,0.3c-0.1-0.1-0.3-0.3-0.5-0.4C7,21.1,7.1,21,7.2,21   c0.2-0.1,0.2-0.4,0.1-0.5c-0.1-0.2-0.3-0.2-0.4-0.1c-0.2,0.1-0.3,0.2-0.4,0.4c-0.1-0.1-0.2-0.3-0.3-0.4c0.1-0.1,0.2-0.2,0.3-0.3   c0.3-0.3,0-1-0.3-0.7c-0.1,0.1-0.3,0.2-0.4,0.3c-0.1-0.3-0.3-0.5-0.3-0.8c0.1,0,0.2,0,0.3,0C6,18.8,6,18,5.6,18c-0.1,0-0.2,0-0.3,0   c0-0.2,0.1-0.5,0.3-0.7c0.1,0.2,0.2,0.3,0.4,0.4c0.1,0.1,0.4,0,0.4-0.1c0.1-0.2,0-0.4-0.1-0.5c0.1,0-0.1-0.1-0.1-0.1   c0,0-0.1-0.1-0.1-0.2c0,0,0-0.1-0.1-0.1c0.1-0.1,0.2-0.2,0.3-0.3c0.1,0.1,0.2,0.3,0.3,0.5C6.8,17,7,17,7.1,16.9   c0.1-0.2,0.1-0.4,0-0.6C7,16.1,6.9,16,6.8,15.9c0.2-0.2,0.3-0.3,0.5-0.5c0.1,0.1,0.2,0.3,0.4,0.4c0.3,0.4,0.7-0.2,0.5-0.6   C8,15,7.9,14.9,7.8,14.8c0.2-0.2,0.4-0.4,0.5-0.6c0.1,0.2,0.2,0.3,0.4,0.5c0.3,0.4,0.7-0.2,0.5-0.6C9,14,8.9,13.9,8.8,13.7   c0.1-0.1,0.2-0.2,0.2-0.2c0.1-0.1,0.2-0.2,0.3-0.3c0.1,0.1,0.1,0.2,0.2,0.3c0.1,0.2,0.3,0.3,0.4,0.1c0.1-0.1,0.2-0.4,0.1-0.5   c-0.1-0.1-0.1-0.3-0.2-0.4c0.1-0.1,0.3-0.3,0.4-0.4c0,0,0,0,0,0c0.1,0.1,0.2,0.2,0.3,0.3c0.3,0.4,0.7-0.2,0.5-0.6   C11,12.1,11,12,10.9,11.9c0.4-0.2,0.7-0.2,1,0.4c0.3,0.8,0,1-0.4,1.5c-1.1,1.4-2.4,2.3-3.5,3.6C7.6,17.9,7.4,18.4,7.8,19z"></path><path d="M24.6,13.8c-1-0.9-2.2-2.2-3.4-2.7c-0.8-0.3-2.1,0.1-2.1,1.4c-0.1,1.3,1.5,2.5,2.2,3.3c0.4,0.5,0.8,0.9,1.3,1.3   c0.2,0.2,0.4,0.3,0.6,0.5c0.4,0.4,0.6,0.3,0.3,0.8c-0.7,1.3-6,4.6-4,6.7c0.9,0.9,2.1,0.1,2.9-0.6c1.5-1.3,2.7-2.9,4.1-4.4   C28.7,17.8,26.1,15.2,24.6,13.8z M26.1,19.6c-1.1,1.1-2,2.4-3.1,3.4c-0.5,0.4-0.9,1-1.5,1.3c-0.6,0.4-1.1,0.6-1.4-0.2   c-0.1-0.3-0.2-0.6-0.1-0.8c0.2,0.2,0.3,0.3,0.5,0.5c0.1,0.1,0.4,0,0.4-0.1c0.1-0.2,0-0.4-0.1-0.5c-0.1-0.1-0.3-0.2-0.4-0.4   c0,0,0.1-0.1,0.1-0.1c0.1-0.1,0.2-0.2,0.3-0.3c0.1,0.2,0.3,0.3,0.4,0.5c0.1,0.1,0.3,0.2,0.5,0c0.1-0.1,0.1-0.4,0-0.6   c-0.1-0.1-0.3-0.3-0.4-0.5c0.2-0.2,0.3-0.3,0.5-0.5c0.1,0.2,0.3,0.4,0.4,0.6c0.3,0.4,0.7-0.2,0.5-0.6c-0.1-0.2-0.2-0.3-0.4-0.5   c0.1-0.1,0.3-0.2,0.4-0.4c0.1,0.1,0.2,0.3,0.3,0.5c0.1,0.2,0.3,0.1,0.5,0c0.1-0.2,0.1-0.4,0-0.6c-0.1-0.1-0.2-0.3-0.3-0.4   c0.2-0.2,0.3-0.3,0.5-0.5c0.1,0.1,0.2,0.2,0.2,0.3c0.3,0.4,0.7-0.2,0.5-0.6c-0.1-0.1-0.1-0.2-0.2-0.2c0.1-0.2,0.2-0.3,0.2-0.5   c0.1,0,0.3,0,0.4,0c0.2,0,0.3-0.2,0.3-0.4c0-0.2-0.1-0.4-0.3-0.4c-0.2,0-0.4,0-0.6,0c0,0,0,0,0,0c-0.1-0.1-0.2-0.2-0.3-0.4   c0.1-0.1,0.2-0.1,0.3-0.2c0.2-0.1,0.2-0.4,0.1-0.5c-0.1-0.2-0.3-0.2-0.4-0.1c-0.2,0.1-0.4,0.2-0.6,0.3c-0.1-0.1-0.2-0.2-0.3-0.2   c0.1-0.1,0.2-0.1,0.3-0.2c0.2-0.1,0.2-0.4,0.1-0.5c-0.1-0.2-0.3-0.2-0.4-0.1c-0.2,0.1-0.3,0.2-0.5,0.3c0,0,0,0,0,0   c-0.1-0.1-0.2-0.2-0.3-0.3c0,0-0.1-0.1-0.1-0.1c0.1-0.1,0.2-0.2,0.4-0.2c0.2-0.1,0.2-0.4,0.1-0.5c-0.1-0.2-0.3-0.2-0.4-0.1   c-0.2,0.1-0.4,0.2-0.5,0.4c-0.1-0.1-0.2-0.3-0.4-0.4c0.1-0.1,0.1-0.1,0.2-0.1c0.2-0.1,0.3-0.3,0.2-0.5c0-0.2-0.2-0.4-0.4-0.3   c-0.2,0.1-0.4,0.2-0.5,0.4c-0.1-0.1-0.2-0.2-0.3-0.3c0.1-0.1,0.2-0.2,0.3-0.2c0.4-0.2,0-0.9-0.3-0.7c-0.1,0.1-0.2,0.2-0.3,0.3   c-0.3-1.4,0.8-1.2,1.3-1c1.1,0.5,2.2,1.7,3.2,2.6C25.5,15.7,27.8,17.7,26.1,19.6z"></path><path d="M16.8,11c-0.9,0-1.2,1-1.5,2c-0.6,2.2-1,4.4-1.3,6.7c-0.2,1.2-1.3,6.3,0.8,5.9c0.8-0.1,1.4-1.2,1.6-2.1   c0.6-1.9,0.9-4,1.2-5.9c0.2-1,0.3-1.9,0.5-2.9c0.1-0.7,0.4-1.5,0.3-2.2C18.2,11.4,17.6,11,16.8,11z M16.8,18.4   c-0.2,0.9-0.3,1.7-0.5,2.6c-0.2,1.1-0.4,3.3-1.5,3.3c-0.6,0-0.6-0.1-0.6-0.6c0.1,0,0.2,0,0.2,0.1c0.2,0.1,0.3-0.1,0.4-0.3   c0-0.2-0.1-0.4-0.2-0.5C14.4,23,14.3,23,14.2,23c0-0.1,0-0.3,0-0.4c0.1,0,0.3,0.1,0.4,0.1c0.4,0,0.4-0.8,0-0.8c-0.1,0-0.2,0-0.3,0   c0-0.1,0-0.2,0-0.2c0,0,0-0.1,0-0.1c0.1,0,0.3,0.1,0.4,0.1c0.4,0.1,0.6-0.6,0.2-0.8c-0.2,0-0.3-0.1-0.5-0.1c0-0.2,0.1-0.5,0.1-0.7   c0.2,0,0.4,0.1,0.5,0.2c0.2,0.1,0.3-0.1,0.4-0.3c0-0.2-0.1-0.4-0.2-0.5c-0.2-0.1-0.4-0.1-0.6-0.2c0-0.2,0.1-0.3,0.1-0.5   c0.1,0,0.3,0.1,0.4,0.1c0.4,0.1,0.6-0.7,0.2-0.8c-0.2,0-0.3-0.1-0.5-0.1c0-0.2,0.1-0.4,0.1-0.6c0.1,0,0.2,0.1,0.3,0.1   c0.4,0.1,0.6-0.6,0.2-0.8c-0.1,0-0.2-0.1-0.3-0.1c0-0.1,0-0.2,0.1-0.3c0.2,0,0.4,0.1,0.5,0.1c0.2,0,0.3-0.1,0.4-0.3   c0-0.2-0.1-0.4-0.2-0.5c-0.2-0.1-0.4-0.1-0.6-0.2c0-0.2,0.1-0.3,0.1-0.5c0.1,0,0.2,0.1,0.4,0.1c0.4,0.1,0.6-0.6,0.2-0.8   c-0.1,0-0.2-0.1-0.4-0.1c0-0.1,0.1-0.2,0.1-0.3c0.1,0,0.2,0.1,0.3,0.1c0.2,0.1,0.3-0.1,0.4-0.3c0-0.2-0.1-0.4-0.2-0.5   c-0.1,0-0.2-0.1-0.3-0.1c0-0.1,0.1-0.2,0.1-0.3c0.1,0.1,0.2,0.1,0.3,0.1c0.2,0,0.3-0.1,0.4-0.3c0-0.2-0.1-0.5-0.2-0.5   c0,0-0.1,0-0.1,0c0.1-0.1,0.2-0.2,0.4-0.2C18.3,11.8,16.9,17.5,16.8,18.4z"></path></g></svg>