<svg enable-background="new 0 0 32 32" height="100" viewBox="0 0 32 32" width="100" xmlns="http://www.w3.org/2000/svg"><path d="m29.9 21.9c-.1 0-.1-.1 0 0-.7-.8-1.5-1.6-2.3-2.2-.1-.1-.3-.1-.4 0s-.2.1-.3.2c-.3-.4-.7-.9-1.2-.7-.1 0-.2.1-.4.2-.8-1.2-1.1-2.6-1.5-4-.4-1.3-1.1-2.4-1.9-3.4-.6-.7-1.4-1.9-2.4-2.1-.6-.1-1.2.3-1.5.8-.9-.6-2.1-.3-2.5.8-.8-.4-1.8-.1-2.3.8-1.7-1.8-3.1-4-4.9-5.5-1.3-1.1-3.4-.1-2.6 1.8.5 1.3 1.8 2.3 2.7 3.3.6.7 1.3 1.4 1.9 2.2.5.6 1 1.1 1.5 1.7-.8 2.5 0 4.8 2.3 5.9 1.1.5 2.4.7 3.6 1 1.1.2 2 1 2.7 1.9-.1.1-.1.2-.1.3-.1.6.4 1.1.8 1.5 0 .1-.1.1-.1.2-.1.2-.2.4 0 .6.8.9 1.5 1.8 2.2 2.6.1.2.3.2.5.1.8-.4 1.5-1.4 2.1-2.1.7-.9 1.5-1.7 2.3-2.5.4-.6 2.5-2.2 1.8-3.4zm-9 2c-1.1-1.2-2.1-1.9-3.6-2.2-2.6-.5-5.8-1.8-4.9-5.3.4.5.9 1 1.3 1.5.4.4.9-.2.6-.6-1.8-1.9-3.4-3.9-5.2-5.8-.8-.8-1.9-1.8-2.5-2.8-.3-.7-.3-1.4.5-1.4.5 0 .7.1 1 .5.3.2.6.6.8.9 1.4 1.5 2.7 3.2 4.1 4.7.2.2.6.1.7-.2.2-.9.7-1.1 1.7-.7.3.3.7.1.7-.3.2-.9.8-1.1 1.7-.4.2.2.6.1.7-.2.5-2 2.4.6 2.9 1.1.7.8 1.2 1.7 1.6 2.8.5 1.6.8 3.1 1.7 4.5 0 0-.1.1-.1.1-.6.5-1.2 1.1-1.7 1.7-.5.5-.9 1.1-1.4 1.6-.2.1-.4.3-.6.5zm.2 1.3c0-.2.4-.5.6-.7.6-.7 1.2-1.4 1.8-2.1.7-.7 1.4-1.4 2.1-2 .4-.3.4-.2.6.2-.6.7-1.2 1.5-1.7 2.1-1 1.1-2 2.1-3 3.2-.2-.3-.4-.7-.4-.7zm2.3 3.8c-.6-.7-1.2-1.4-1.7-2 1.3-1.7 2.9-3.1 4.3-4.7.3-.3.6-.7.9-1 .2-.2.5-.5.5-.5.3 0 1.6 1.5 1.9 1.8 0 0-4.5 5.2-5.9 6.4z"/><path d="m23 26.2c-.1.1-.1.1-.1.1-.3.5-.2 1.1.2 1.4s1 .1 1.3-.3c.3-.5.2-1.1-.2-1.5s-.9-.1-1.2.3zm.9.8c-.1.1-.3.2-.4.1-.2-.1-.1-.4 0-.6s.3-.3.4-.1c0 .3.1.5 0 .6z"/><path d="m11 7.7c.4-3.8-4.2-4.8-6.2-2.6-2.3 2.4-1.3 7.6 2.4 7.2.4 0 .4-.7 0-.7-3.1.4-3.9-4-1.9-6 1.7-1.8 5.5-1.1 5.2 2.1-.1.4.5.4.5-0z"/><path d="m8.2 12.8c-1.5.7-3.5 0-4.6-1.3-1.7-2-1-5.4.5-7.2s3.8-2.1 5.7-1c1.7 1 2.9 3.9 1.9 5.9-.2.4.3.7.5.3 1.1-2.2.1-5.1-1.6-6.5-2-1.6-4.9-1.4-6.7.5-1.8 2-2.6 5.5-1.2 7.9 1.1 1.9 3.7 2.9 5.6 2.1.4-.2.2-.8-.1-.7z"/><path d="m27.1 22c-.2-.4-.7 0-.5.3s.3.6.5.9c.2.4.7 0 .5-.3s-.3-.6-.5-.9z"/><path d="m28 21.9c-.1-.2-.3-.2-.4-.1-.2.1-.2.3-.1.5.1.3.3.6.4.9.1.2.3.2.4.1.2-.1.2-.3.1-.5-.2-.3-.3-.6-.4-.9z"/></svg>