<svg height='100px' width='100px'  fill="#000000" xmlns="http://www.w3.org/2000/svg" xmlns:xlink="http://www.w3.org/1999/xlink" version="1.1" x="0px" y="0px" viewBox="0 0 32 32" style="enable-background:new 0 0 32 32;" xml:space="preserve"><g><path d="M29.9,21.9C29.8,21.9,29.8,21.8,29.9,21.9c-0.7-0.8-1.5-1.6-2.3-2.2c-0.1-0.1-0.3-0.1-0.4,0c-0.1,0.1-0.2,0.1-0.3,0.2   c-0.3-0.4-0.7-0.9-1.2-0.7c-0.1,0-0.2,0.1-0.4,0.2c-0.8-1.2-1.1-2.6-1.5-4c-0.4-1.3-1.1-2.4-1.9-3.4c-0.6-0.7-1.4-1.9-2.4-2.1   c-0.6-0.1-1.2,0.3-1.5,0.8c-0.9-0.6-2.1-0.3-2.5,0.8c-0.8-0.4-1.8-0.1-2.3,0.8c-1.7-1.8-3.1-4-4.9-5.5C7,5.7,4.9,6.7,5.7,8.6   c0.5,1.3,1.8,2.3,2.7,3.3c0.6,0.7,1.3,1.4,1.9,2.2c0.5,0.6,1,1.1,1.5,1.7c-0.8,2.5,0,4.8,2.3,5.9c1.1,0.5,2.4,0.7,3.6,1   c1.1,0.2,2,1,2.7,1.9c-0.1,0.1-0.1,0.2-0.1,0.3c-0.1,0.6,0.4,1.1,0.8,1.5c0,0.1-0.1,0.1-0.1,0.2c-0.1,0.2-0.2,0.4,0,0.6   c0.8,0.9,1.5,1.8,2.2,2.6c0.1,0.2,0.3,0.2,0.5,0.1c0.8-0.4,1.5-1.4,2.1-2.1c0.7-0.9,1.5-1.7,2.3-2.5C28.5,24.7,30.6,23.1,29.9,21.9   z M20.9,23.9c-1.1-1.2-2.1-1.9-3.6-2.2c-2.6-0.5-5.8-1.8-4.9-5.3c0.4,0.5,0.9,1,1.3,1.5c0.4,0.4,0.9-0.2,0.6-0.6   c-1.8-1.9-3.4-3.9-5.2-5.8c-0.8-0.8-1.9-1.8-2.5-2.8C6.3,8,6.3,7.3,7.1,7.3c0.5,0,0.7,0.1,1,0.5C8.4,8,8.7,8.4,8.9,8.7   c1.4,1.5,2.7,3.2,4.1,4.7c0.2,0.2,0.6,0.1,0.7-0.2c0.2-0.9,0.7-1.1,1.7-0.7c0.3,0.3,0.7,0.1,0.7-0.3c0.2-0.9,0.8-1.1,1.7-0.4   c0.2,0.2,0.6,0.1,0.7-0.2c0.5-2,2.4,0.6,2.9,1.1c0.7,0.8,1.2,1.7,1.6,2.8c0.5,1.6,0.8,3.1,1.7,4.5c0,0-0.1,0.1-0.1,0.1   c-0.6,0.5-1.2,1.1-1.7,1.7c-0.5,0.5-0.9,1.1-1.4,1.6C21.3,23.5,21.1,23.7,20.9,23.9z M21.1,25.2c0-0.2,0.4-0.5,0.6-0.7   c0.6-0.7,1.2-1.4,1.8-2.1c0.7-0.7,1.4-1.4,2.1-2c0.4-0.3,0.4-0.2,0.6,0.2c-0.6,0.7-1.2,1.5-1.7,2.1c-1,1.1-2,2.1-3,3.2   C21.3,25.6,21.1,25.2,21.1,25.2z M23.4,29c-0.6-0.7-1.2-1.4-1.7-2c1.3-1.7,2.9-3.1,4.3-4.7c0.3-0.3,0.6-0.7,0.9-1   c0.2-0.2,0.5-0.5,0.5-0.5c0.3,0,1.6,1.5,1.9,1.8C29.3,22.6,24.8,27.8,23.4,29z"></path><path d="M23,26.2C23,26.2,22.9,26.2,23,26.2c-0.1,0.1-0.1,0.1-0.1,0.1c-0.3,0.5-0.2,1.1,0.2,1.4c0.4,0.3,1,0.1,1.3-0.3   c0.3-0.5,0.2-1.1-0.2-1.5C23.8,25.5,23.3,25.8,23,26.2z M23.9,27c-0.1,0.1-0.3,0.2-0.4,0.1c-0.2-0.1-0.1-0.4,0-0.6   c0.1-0.2,0.3-0.3,0.4-0.1C23.9,26.7,24,26.9,23.9,27z"></path><path d="M11,7.7c0.4-3.8-4.2-4.8-6.2-2.6c-2.3,2.4-1.3,7.6,2.4,7.2c0.4,0,0.4-0.7,0-0.7c-3.1,0.4-3.9-4-1.9-6   c1.7-1.8,5.5-1.1,5.2,2.1C10.4,8.1,11,8.1,11,7.7z"></path><path d="M8.2,12.8c-1.5,0.7-3.5,0-4.6-1.3c-1.7-2-1-5.4,0.5-7.2c1.5-1.8,3.8-2.1,5.7-1c1.7,1,2.9,3.9,1.9,5.9   c-0.2,0.4,0.3,0.7,0.5,0.3c1.1-2.2,0.1-5.1-1.6-6.5c-2-1.6-4.9-1.4-6.7,0.5C2.1,5.5,1.3,9,2.7,11.4c1.1,1.9,3.7,2.9,5.6,2.1   C8.7,13.3,8.5,12.7,8.2,12.8z"></path><path d="M27.1,22c-0.2-0.4-0.7,0-0.5,0.3c0.2,0.3,0.3,0.6,0.5,0.9c0.2,0.4,0.7,0,0.5-0.3C27.4,22.6,27.3,22.3,27.1,22z"></path><path d="M28,21.9c-0.1-0.2-0.3-0.2-0.4-0.1c-0.2,0.1-0.2,0.3-0.1,0.5c0.1,0.3,0.3,0.6,0.4,0.9c0.1,0.2,0.3,0.2,0.4,0.1   c0.2-0.1,0.2-0.3,0.1-0.5C28.2,22.5,28.1,22.2,28,21.9z"></path></g></svg>