<svg height='100px' width='100px'  fill="#000000" xmlns="http://www.w3.org/2000/svg" xmlns:xlink="http://www.w3.org/1999/xlink" version="1.1" x="0px" y="0px" viewBox="0 0 32 32" style="enable-background:new 0 0 32 32;" xml:space="preserve"><g><path d="M15.6,11c-2.5,0.2-4.6,2.3-4.5,4.9c0.1,2.7,2.4,4.7,5,4.7C22.8,20.8,22.1,10.3,15.6,11z M16.2,19.9c-2.2,0-4.1-1.7-4.2-3.9   c-0.1-2.2,1.6-3.9,3.7-4.1C21,11.2,21.7,19.9,16.2,19.9z"></path><path d="M29.9,16.1c0-0.7,0.2-2.1-0.4-2.6c-0.6-0.5-2-0.4-2.8-0.4c-0.2-0.7-0.4-1.4-0.6-2.1c-0.1-0.3-0.5-0.8-0.5-1   c0.1-0.4,1.3-0.9,1.6-1.3c0.2-0.3,0.3-0.6,0.2-1c-0.2-0.6-1-1.1-1.4-1.6c-0.4-0.4-1-1.2-1.6-1.4c-1-0.4-1.9,0.9-2.5,1.6   c-0.8-0.4-1.5-0.7-2.3-1.1c-0.6-0.3-0.7-0.3-0.8-0.9c-0.1-0.5,0.1-1,0-1.5c-0.3-1.4-1.8-1-3-0.9c-1.2,0.1-2.4-0.1-2.5,1.3   c0,0.5,0.2,1.1,0.1,1.5c-0.1,0.4-0.2,0.3-0.8,0.5c-0.8,0.3-1.5,0.6-2.2,1.1C9.7,5.8,9.1,4.9,8.2,4.9c-1,0-2,1.3-2.6,2   c-1.3,1.3,0.1,2.2,1,3.2c-0.7,1-1.2,2-1.5,3.1C4.3,13.1,3,13,2.4,13.6c-0.6,0.6-0.3,2.3-0.3,3.1c0.1,0.7,0,1.6,0.7,1.9   c0.6,0.4,1.7,0.2,2.5,0.1c0.2,0.7,0.4,1.4,0.7,2.1c0.1,0.2,0.4,0.6,0.4,0.7c0,0-0.2,0.2-0.3,0.3C5.7,22.4,4.4,23,4.7,24   c0.3,0.9,2.2,2.5,3.1,2.9c1,0.4,1.9-0.7,2.5-1.4c1,0.7,2,1.1,3.1,1.3c0,0.9-0.4,2.1,0.2,2.8c0.4,0.5,1.4,0.4,1.9,0.4   c0.7,0,1.6,0.1,2.3-0.1c0.5-0.2,0.7-0.5,0.8-1c0.1-0.5-0.4-1.5-0.1-1.9c0.2-0.4,1.4-0.6,1.8-0.8c0.7-0.4,1.3-1.1,2.1-0.4   c0.8,0.7,1.2,1.9,2.3,1.3c0.8-0.5,1.8-1.5,2.3-2.3c0.6-0.9,0.2-1.3-0.6-2c-0.7-0.7-1-0.6-0.6-1.6c0.4-0.8,0.6-1.7,0.9-2.5   c0.9,0,2.1,0.3,2.8-0.2C30.2,17.9,30,16.8,29.9,16.1z M28.6,17.7c-0.6,0.2-1.6,0-2.2,0c-0.1,0-0.2,0.1-0.3,0.1c0,0-0.1,0.1-0.1,0.2   c-0.4,1.1-0.9,2.2-1.3,3.3c-0.2,0.5-0.1,0.8,0.2,1.2c0.3,0.4,1.2,0.7,1.4,1.3c0.2,0.6-0.9,1.5-1.2,1.8c-0.2,0.2-0.5,0.6-0.7,0.6   c-0.5,0.1-0.7-0.2-1-0.6c-0.4-0.4-0.7-1.1-1.3-1.1c-0.4-0.1-0.9,0.3-1.2,0.5c-0.9,0.5-1.7,0.9-2.7,1.1c-0.1,0-0.3,0.2-0.3,0.3   c-0.1,0.5,0,1,0,1.5c0,1.4-1.2,1.4-2.3,1.3c-1,0-1.3,0-1.3-1c0-0.6,0.1-1.1,0-1.7c0-0.2-0.2-0.4-0.4-0.4c-1.2-0.1-2.3-0.6-3.3-1.3   c-0.1,0-0.1-0.1-0.2-0.1c-0.1,0-0.3,0-0.4,0.1c-0.4,0.3-1,1.2-1.5,1.3c-0.8,0.2-1.5-0.7-2-1.2c-0.4-0.4-1.1-0.8-0.9-1.5   c0.1-0.4,0.8-0.9,1.1-1.2c0.4-0.3,0.5-0.4,0.4-0.9c-0.1-0.5-0.5-1.1-0.7-1.6c-0.2-0.5-0.3-1.1-0.5-1.6c0-0.2-0.2-0.3-0.4-0.3   c-0.4,0.1-0.8,0.1-1.3,0.1c-0.8,0-1.2,0.1-1.3-0.7c-0.1-0.6-0.2-1.4-0.1-2c0-0.3,0.1-0.9,0.4-1.1c0.4-0.2,1.6,0,2,0.1   c0.2,0,0.4-0.1,0.5-0.3c0.3-1.3,0.8-2.5,1.7-3.5c0.1-0.1,0-0.4-0.1-0.5C6.8,9.2,5.5,8.4,6.1,7.5c0.2-0.4,1-1.1,1.4-1.3   c1.2-0.6,1.7,0.3,2.3,1c0.1,0.2,0.3,0.3,0.5,0.2c0.9-0.6,1.8-1,2.8-1.3c0.2-0.1,0.5-0.2,0.7-0.3c0.2-0.3,0.2-0.7,0.3-1   c0-0.3-0.1-0.7-0.1-1.1C14.2,3,14.9,3,15.5,3c0.4,0,0.8-0.1,1.2-0.1c0.5,0,0.7,0,1,0.2c0.3,0.2,0.2,0.6,0.2,1   c0.1,0.5-0.2,1,0.1,1.4c0.2,0.3,0.5,0.4,0.8,0.5c1,0.4,1.9,0.7,2.8,1.2c0,0,0.1,0,0.1,0c0.1,0.1,0.3,0.1,0.4-0.1   c0.4-0.4,0.9-1.2,1.5-1.5c0.7-0.3,1,0.4,1.6,0.9c0.6,0.5,1.5,1.1,1,1.9C26,9,25.4,9.2,25,9.5c-0.3,0.4-0.3,0.6-0.2,1   c0.2,0.4,0.4,0.8,0.6,1.2c0.2,0.6,0.4,1.3,0.6,1.9c0.1,0.2,0.2,0.3,0.4,0.3c0.6,0,1.4,0,2,0.2c1,0.3,0.7,1.2,0.7,2   C29.1,16.8,29.3,17.5,28.6,17.7z"></path><path d="M14.1,9c0.5-0.2,1-0.2,1.5-0.2c0.5,0,0.5-0.8,0-0.8c-0.6,0-1.2,0.1-1.7,0.3C13.4,8.4,13.7,9.2,14.1,9z"></path><path d="M18.6,9.3c0.4,0.1,0.8,0.3,1.1,0.6c0.4,0.3,1-0.2,0.6-0.6c-0.4-0.4-0.9-0.7-1.5-0.8C18.3,8.3,18.1,9.1,18.6,9.3z"></path><path d="M23.4,13c-0.2-0.5-0.4-1-0.7-1.4c-0.1-0.2-0.3-0.3-0.6-0.1c-0.2,0.1-0.3,0.4-0.1,0.6c0.3,0.4,0.5,0.8,0.7,1.2   C22.8,13.7,23.6,13.5,23.4,13z"></path><path d="M23.1,16.3c0,0.5-0.1,0.9-0.2,1.4c-0.1,0.5,0.7,0.7,0.8,0.2c0.1-0.5,0.2-1.1,0.3-1.6C23.9,15.8,23.1,15.8,23.1,16.3z"></path><path d="M22,20.2c-0.2-0.1-0.5-0.1-0.6,0.1c-0.2,0.4-0.5,0.7-0.9,1c-0.5,0.3,0,1,0.4,0.7c0.5-0.3,0.9-0.7,1.2-1.2   C22.2,20.6,22.2,20.3,22,20.2z"></path><path d="M17.8,22.7c-0.5,0.1-0.9,0.1-1.4,0.2c-0.5,0-0.5,0.9,0,0.8c0.5,0,1.1-0.1,1.6-0.2C18.5,23.4,18.3,22.6,17.8,22.7z"></path><path d="M13.5,22.4c-0.5-0.1-0.9-0.3-1.3-0.6c-0.2-0.1-0.4,0-0.6,0.1c-0.1,0.2,0,0.4,0.1,0.6c0.5,0.3,1,0.6,1.5,0.7   C13.8,23.4,14,22.6,13.5,22.4z"></path><path d="M9.4,18.4c-0.1-0.5-0.9-0.3-0.8,0.2c0.2,0.6,0.4,1.1,0.8,1.6c0.1,0.2,0.4,0.1,0.6,0c0.2-0.2,0.1-0.4,0-0.6   C9.7,19.3,9.5,18.9,9.4,18.4z"></path><path d="M9.1,15.5c0-0.5,0-1,0.1-1.5c0.1-0.5-0.7-0.7-0.8-0.2c-0.1,0.6-0.1,1.1-0.1,1.7C8.3,16,9.1,16,9.1,15.5z"></path><path d="M11.2,9.8c-0.5,0.3-0.9,0.7-1.3,1.1c-0.1,0.2-0.2,0.4,0,0.6c0.1,0.1,0.4,0.2,0.6,0c0.3-0.4,0.7-0.7,1.1-1   C12,10.2,11.6,9.5,11.2,9.8z"></path></g></svg>