<svg enable-background="new 0 0 32 32" height="100" viewBox="0 0 32 32" width="100" xmlns="http://www.w3.org/2000/svg" fill="currentColor"><path d="m15.6 11c-2.5.2-4.6 2.3-4.5 4.9.1 2.7 2.4 4.7 5 4.7 6.7.2 6-10.3-.5-9.6zm.6 8.9c-2.2 0-4.1-1.7-4.2-3.9s1.6-3.9 3.7-4.1c5.3-.7 6 8 .5 8z"/><path d="m29.9 16.1c0-.7.2-2.1-.4-2.6s-2-.4-2.8-.4c-.2-.7-.4-1.4-.6-2.1-.1-.3-.5-.8-.5-1 .1-.4 1.3-.9 1.6-1.3.2-.3.3-.6.2-1-.2-.6-1-1.1-1.4-1.6-.4-.4-1-1.2-1.6-1.4-1-.4-1.9.9-2.5 1.6-.8-.4-1.5-.7-2.3-1.1-.6-.3-.7-.3-.8-.9-.1-.5.1-1 0-1.5-.3-1.4-1.8-1-3-.9s-2.4-.1-2.5 1.3c0 .5.2 1.1.1 1.5s-.2.3-.8.5c-.8.3-1.5.6-2.2 1.1-.7-.5-1.3-1.4-2.2-1.4-1 0-2 1.3-2.6 2-1.3 1.3.1 2.2 1 3.2-.7 1-1.2 2-1.5 3.1-.8-.1-2.1-.2-2.7.4s-.3 2.3-.3 3.1c.1.7 0 1.6.7 1.9.6.4 1.7.2 2.5.1.2.7.4 1.4.7 2.1.1.2.4.6.4.7 0 0-.2.2-.3.3-.4.6-1.7 1.2-1.4 2.2.3.9 2.2 2.5 3.1 2.9 1 .4 1.9-.7 2.5-1.4 1 .7 2 1.1 3.1 1.3 0 .9-.4 2.1.2 2.8.4.5 1.4.4 1.9.4.7 0 1.6.1 2.3-.1.5-.2.7-.5.8-1s-.4-1.5-.1-1.9c.2-.4 1.4-.6 1.8-.8.7-.4 1.3-1.1 2.1-.4s1.2 1.9 2.3 1.3c.8-.5 1.8-1.5 2.3-2.3.6-.9.2-1.3-.6-2-.7-.7-1-.6-.6-1.6.4-.8.6-1.7.9-2.5.9 0 2.1.3 2.8-.2.7-.6.5-1.7.4-2.4zm-1.3 1.6c-.6.2-1.6 0-2.2 0-.1 0-.2.1-.3.1 0 0-.1.1-.1.2-.4 1.1-.9 2.2-1.3 3.3-.2.5-.1.8.2 1.2s1.2.7 1.4 1.3-.9 1.5-1.2 1.8c-.2.2-.5.6-.7.6-.5.1-.7-.2-1-.6-.4-.4-.7-1.1-1.3-1.1-.4-.1-.9.3-1.2.5-.9.5-1.7.9-2.7 1.1-.1 0-.3.2-.3.3-.1.5 0 1 0 1.5 0 1.4-1.2 1.4-2.3 1.3-1 0-1.3 0-1.3-1 0-.6.1-1.1 0-1.7 0-.2-.2-.4-.4-.4-1.2-.1-2.3-.6-3.3-1.3-.1 0-.1-.1-.2-.1s-.3 0-.4.1c-.4.3-1 1.2-1.5 1.3-.8.2-1.5-.7-2-1.2-.4-.4-1.1-.8-.9-1.5.1-.4.8-.9 1.1-1.2.4-.3.5-.4.4-.9s-.5-1.1-.7-1.6-.3-1.1-.5-1.6c0-.2-.2-.3-.4-.3-.4.1-.8.1-1.3.1-.8 0-1.2.1-1.3-.7-.1-.6-.2-1.4-.1-2 0-.3.1-.9.4-1.1.4-.2 1.6 0 2 .1.2 0 .4-.1.5-.3.3-1.3.8-2.5 1.7-3.5.1-.1 0-.4-.1-.5-.5-.7-1.8-1.5-1.2-2.4.2-.4 1-1.1 1.4-1.3 1.2-.6 1.7.3 2.3 1 .1.2.3.3.5.2.9-.6 1.8-1 2.8-1.3.2-.1.5-.2.7-.3.2-.3.2-.7.3-1 0-.3-.1-.7-.1-1.1.2-.7.9-.7 1.5-.7.4 0 .8-.1 1.2-.1.5 0 .7 0 1 .2s.2.6.2 1c.1.5-.2 1 .1 1.4.2.3.5.4.8.5 1 .4 1.9.7 2.8 1.2h.1c.1.1.3.1.4-.1.4-.4.9-1.2 1.5-1.5.7-.3 1 .4 1.6.9s1.5 1.1 1 1.9c-.2.6-.8.8-1.2 1.1-.3.4-.3.6-.2 1 .2.4.4.8.6 1.2.2.6.4 1.3.6 1.9.1.2.2.3.4.3.6 0 1.4 0 2 .2 1 .3.7 1.2.7 2 0 .7.2 1.4-.5 1.6z"/><path d="m14.1 9c.5-.2 1-.2 1.5-.2s.5-.8 0-.8c-.6 0-1.2.1-1.7.3-.5.1-.2.9.2.7z"/><path d="m18.6 9.3c.4.1.8.3 1.1.6.4.3 1-.2.6-.6s-.9-.7-1.5-.8c-.5-.2-.7.6-.2.8z"/><path d="m23.4 13c-.2-.5-.4-1-.7-1.4-.1-.2-.3-.3-.6-.1-.2.1-.3.4-.1.6.3.4.5.8.7 1.2.1.4.9.2.7-.3z"/><path d="m23.1 16.3c0 .5-.1.9-.2 1.4s.7.7.8.2.2-1.1.3-1.6c-.1-.5-.9-.5-.9 0z"/><path d="m22 20.2c-.2-.1-.5-.1-.6.1-.2.4-.5.7-.9 1-.5.3 0 1 .4.7.5-.3.9-.7 1.2-1.2.1-.2.1-.5-.1-.6z"/><path d="m17.8 22.7c-.5.1-.9.1-1.4.2-.5 0-.5.9 0 .8.5 0 1.1-.1 1.6-.2s.3-.9-.2-.8z"/><path d="m13.5 22.4c-.5-.1-.9-.3-1.3-.6-.2-.1-.4 0-.6.1-.1.2 0 .4.1.6.5.3 1 .6 1.5.7.6.2.8-.6.3-.8z"/><path d="m9.4 18.4c-.1-.5-.9-.3-.8.2.2.6.4 1.1.8 1.6.1.2.4.1.6 0 .2-.2.1-.4 0-.6-.3-.3-.5-.7-.6-1.2z"/><path d="m9.1 15.5c0-.5 0-1 .1-1.5s-.7-.7-.8-.2c-.1.6-.1 1.1-.1 1.7 0 .5.8.5.8 0z"/><path d="m11.2 9.8c-.5.3-.9.7-1.3 1.1-.1.2-.2.4 0 .6.1.1.4.2.6 0 .3-.4.7-.7 1.1-1s0-1-.4-.7z"/></svg>
