<svg height='100px' width='100px'  fill="#000000" xmlns="http://www.w3.org/2000/svg" xmlns:xlink="http://www.w3.org/1999/xlink" version="1.1" x="0px" y="0px" viewBox="0 0 32 32" style="enable-background:new 0 0 32 32;" xml:space="preserve"><g><path d="M7.5,24.1c0.7-0.7,1.3-1.3,1.9-2.1c0.3-0.3,0.4-0.7,0.3-1.1c0-0.1,0-0.1-0.1-0.2c-0.1-0.1-0.1-0.1-0.2-0.1   c-1.1-0.4-2,1-2.7,1.6c-0.9,0.9-2,1.8-2.4,3c0,0.1,0,0.2,0.1,0.3C5.5,26.8,6.8,24.8,7.5,24.1z M5.7,25c-0.2,0.2-0.7,0.6-0.7,0.5   c-0.1-0.3,0.6-1,0.9-1.3c0.3-0.3,0.6-0.6,0.9-1c0.3-0.4,1.7-2.1,2.4-2c0,0.5-1.7,2-2,2.3c-0.3,0.3-0.6,0.6-0.9,0.9   C6,24.7,5.9,24.8,5.7,25z"></path><path d="M8.9,23.7c-0.7,0.7-1.4,1.4-2,2.1c-0.5,0.5-0.8,0.8-0.7,1.6c0,0,0,0,0,0c0,0,0,0,0,0c0,0.1,0.1,0.2,0.2,0.2   c0.9,0.8,2.5-1.3,3.1-1.8c0.5-0.6,2.6-2.2,2.1-3.2C10.8,21.5,9.3,23.3,8.9,23.7z M6.8,27.1c0.1-0.7,1.5-1.8,1.9-2.3   c0.3-0.3,1.7-2,2-1.7C11,23.5,7.4,27,6.8,27.1z"></path><path d="M27.7,22.6c-2.7-2.6-5.6-5-8.5-7.5c1.7-1.6,3.4-3.3,5.1-5C24.6,9.8,25,9.4,25.4,9C26,8.5,26.3,8.6,27,8.5   c0.2,0,0.4,0,0.6-0.2c0.8-0.5,1.3-2,1.8-2.8c0.4-0.8,0.4-0.9-0.3-1.6c-0.6-0.6-0.9-1.1-1.7-0.7c-0.9,0.5-2.4,1.1-3.2,1.9   C24,5.3,24,5.4,23.9,5.6c0,0.2,0,0.4,0,0.6c-0.1,0.5-0.4,0.9-0.8,1.2c-0.3,0.4-0.7,0.7-1.1,1c-1.7,1.6-3.4,3.3-5,4.9   c-1.4-1.2-2.7-2.3-4-3.5c1.2-1.7,1.4-4,0.1-5.7c-1.4-1.8-3.3-2.4-5.6-1.9C7.3,2.2,7.1,2.5,7.3,2.8c0.4,0.7,0.8,1.4,1.2,2.1   c0.1,0.2,0.3,0.5,0.4,0.7C9,5.7,9.1,5.9,9.1,5.9C8.9,6.6,8.5,7.4,8.2,8C7.8,8,7.4,8,7,8c-0.3,0-0.7-0.1-1,0c0,0,0,0,0,0   c-0.7-1-1.3-2-1.9-3C4,4.6,3.6,4.6,3.4,4.8c-1.8,1.6-1.9,4.5-0.4,6.3c1.7,2.1,4.2,2.3,6.7,1.6c1.3,1.3,2.6,2.6,3.9,3.9   c-0.1,0.1-0.3,0.3-0.4,0.4c-0.5-0.5-1.1-0.9-1.6-1.4c-0.2-0.2-0.4-0.2-0.6,0c-0.4,0.3-0.8,0.8-1,1.2c-0.3,0.7,0,1.3-0.3,2   c-0.1,0.3-1.7,0.3-2.1,0.4c-0.6,0.3-1.2,0.9-1.7,1.3c-0.7,0.7-1.4,1.4-2,2.1c-0.5,0.5-1.3,1.3-1.6,1.9c-0.5,0.9,0.6,1.7,1.2,2.4   c0.8,0.9,2,2.3,3.1,2.8c1.2,0.6,2-0.8,2.8-1.5c1.1-1.1,2.4-2.2,3.3-3.5c0.3-0.4,0.5-0.7,0.5-1.2c0.1-0.9-0.3-1.3,0.9-1.4   c1.1-0.1,1.7-0.6,2.5-1.4c0.2-0.2,0.2-0.4,0-0.6c-0.4-0.5-0.9-0.9-1.3-1.4c0.1-0.1,0.3-0.2,0.4-0.4c1.6,1.6,3.3,3.3,4.9,4.9   c0.9,0.9,1.8,1.8,2.7,2.6c0.9,0.9,1.8,2,3,2.4c1.7,0.7,3.3-0.3,3.8-1.9C30.4,25,28.8,23.7,27.7,22.6z M21.6,9.8   c0.9-0.9,2.5-1.9,2.9-3.1c0.1-0.3,0-0.9,0-1.1c0.2-0.3,1-0.6,1.3-0.8c0.5-0.3,0.9-0.5,1.4-0.8c0.6-0.4,0.6-0.4,1.1,0   c0.4,0.4,0.6,0.5,0.5,1c-0.1,0.4-0.5,0.9-0.7,1.3c-0.2,0.4-0.5,0.9-0.8,1.2C27,7.9,26.5,7.9,26,8c-1.3,0.3-2.2,1.7-3.1,2.6   c-1.4,1.4-2.9,2.8-4.3,4.2c-0.4-0.3-0.8-0.6-1.1-1C18.9,12.5,20.2,11.1,21.6,9.8z M5.9,7.9C5.7,8,5.8,7.9,5.9,7.9L5.9,7.9z    M15.1,21c-0.7,0.5-1.1,0.3-1.9,0.4c-0.7,0.1-1,0.5-1,1.2c0,0.6,0.2,1-0.2,1.6c-0.3,0.6-0.9,1-1.3,1.5c-0.5,0.6-1.1,1.1-1.7,1.7   c-0.4,0.3-0.7,0.7-1.1,1c-0.4,0.4-0.4,0.5-1,0.4c-1-0.1-2.1-1.6-2.8-2.3c-0.4-0.4-1.1-1-1-1.7c0.1-0.6,1.3-1.6,1.7-2.1   c0.9-1.1,2.3-2.7,3.8-2.8c0.8-0.1,1.6,0,1.8-0.9c0.2-0.6,0-1.1,0.1-1.7c0.1-0.3,0.4-0.7,0.7-0.9c1.5,1.3,2.9,2.6,4.3,4.1   C15.5,20.8,15.3,20.9,15.1,21z M14.7,18.5c-0.3-0.3-0.7-0.7-1-1c0.1-0.1,0.3-0.3,0.4-0.4c0.3,0.3,0.7,0.7,1,1   C15,18.2,14.8,18.4,14.7,18.5z M28.9,26.2c-0.1,1.1-0.8,2-2.2,1.7c-1-0.2-1.7-1.1-2.4-1.8c-3.6-3.5-7-7-10.5-10.5   c-1.2-1.2-2.4-2.4-3.7-3.7c0,0,0,0,0,0c-0.1-0.1-0.2-0.2-0.4-0.1c-2,0.6-3.8,0.7-5.5-0.8C2.7,9.8,2.4,7.3,3.7,5.8   c0.3,0.5,0.6,1,0.9,1.5C4.8,7.6,5,8.4,5.4,8.6c0.7,0.5,2.3,0.2,3.1,0.3c0.2,0,0.4-0.1,0.4-0.3c0.3-0.7,1.1-2,1-2.8   C10,5.4,9.6,5,9.4,4.7C9.1,4.1,8.7,3.5,8.3,2.9c1.5-0.2,2.8,0.3,3.9,1.5c1.4,1.6,1.1,3.7-0.2,5.3c-0.1,0.1-0.1,0.4,0.1,0.5   c3.7,3.5,7.7,6.8,11.7,10.2c1.6,1.4,3.2,2.7,4.5,4.2C28.9,25.2,29,25.3,28.9,26.2z"></path><path d="M27.5,24.7c-0.6-0.4-1.3-0.1-1.7,0.4c0,0,0,0.1-0.1,0.1c0,0,0,0.1-0.1,0.1c-0.2,0.6-0.1,1.3,0.5,1.6   c0.6,0.4,1.4,0.1,1.9-0.5C28.4,25.8,28.1,25.1,27.5,24.7z M27.3,26.2c-0.2,0.2-0.6,0.3-0.9,0.2c-0.3-0.2-0.4-0.6-0.2-0.9   c0.2-0.3,0.6-0.5,0.9-0.2C27.5,25.5,27.7,25.8,27.3,26.2z"></path></g></svg>