<svg enable-background="new 0 0 32 32" height="100" viewBox="0 0 32 32" width="100" xmlns="http://www.w3.org/2000/svg" fill="currentColor"><path d="m7.5 24.1c.7-.7 1.3-1.3 1.9-2.1.3-.3.4-.7.3-1.1 0-.1 0-.1-.1-.2s-.1-.1-.2-.1c-1.1-.4-2 1-2.7 1.6-.9.9-2 1.8-2.4 3 0 .1 0 .2.1.3 1.1 1.3 2.4-.7 3.1-1.4zm-1.8.9c-.2.2-.7.6-.7.5-.1-.3.6-1 .9-1.3s.6-.6.9-1 1.7-2.1 2.4-2c0 .5-1.7 2-2 2.3s-.6.6-.9.9-.4.4-.6.6z"/><path d="m8.9 23.7c-.7.7-1.4 1.4-2 2.1-.5.5-.8.8-.7 1.6 0 .1.1.2.2.2.9.8 2.5-1.3 3.1-1.8.5-.6 2.6-2.2 2.1-3.2-.8-1.1-2.3.7-2.7 1.1zm-2.1 3.4c.1-.7 1.5-1.8 1.9-2.3.3-.3 1.7-2 2-1.7.3.4-3.3 3.9-3.9 4z"/><path d="m27.7 22.6c-2.7-2.6-5.6-5-8.5-7.5 1.7-1.6 3.4-3.3 5.1-5 .3-.3.7-.7 1.1-1.1.6-.5.9-.4 1.6-.5.2 0 .4 0 .6-.2.8-.5 1.3-2 1.8-2.8.4-.8.4-.9-.3-1.6-.6-.6-.9-1.1-1.7-.7-.9.5-2.4 1.1-3.2 1.9-.2.2-.2.3-.3.5v.6c-.1.5-.4.9-.8 1.2-.3.4-.7.7-1.1 1-1.7 1.6-3.4 3.3-5 4.9-1.4-1.2-2.7-2.3-4-3.5 1.2-1.7 1.4-4 .1-5.7-1.4-1.8-3.3-2.4-5.6-1.9-.2 0-.4.3-.2.6l1.2 2.1c.1.2.3.5.4.7.1.1.2.3.2.3-.2.7-.6 1.5-.9 2.1-.4 0-.8 0-1.2 0-.3 0-.7-.1-1 0-.7-1-1.3-2-1.9-3-.1-.4-.5-.4-.7-.2-1.8 1.6-1.9 4.5-.4 6.3 1.7 2.1 4.2 2.3 6.7 1.6 1.3 1.3 2.6 2.6 3.9 3.9-.1.1-.3.3-.4.4-.5-.5-1.1-.9-1.6-1.4-.2-.2-.4-.2-.6 0-.4.3-.8.8-1 1.2-.3.7 0 1.3-.3 2-.1.3-1.7.3-2.1.4-.6.3-1.2.9-1.7 1.3-.7.7-1.4 1.4-2 2.1-.5.5-1.3 1.3-1.6 1.9-.5.9.6 1.7 1.2 2.4.8.9 2 2.3 3.1 2.8 1.2.6 2-.8 2.8-1.5 1.1-1.1 2.4-2.2 3.3-3.5.3-.4.5-.7.5-1.2.1-.9-.3-1.3.9-1.4 1.1-.1 1.7-.6 2.5-1.4.2-.2.2-.4 0-.6-.4-.5-.9-.9-1.3-1.4.1-.1.3-.2.4-.4 1.6 1.6 3.3 3.3 4.9 4.9.9.9 1.8 1.8 2.7 2.6.9.9 1.8 2 3 2.4 1.7.7 3.3-.3 3.8-1.9.3-1.3-1.3-2.6-2.4-3.7zm-6.1-12.8c.9-.9 2.5-1.9 2.9-3.1.1-.3 0-.9 0-1.1.2-.3 1-.6 1.3-.8.5-.3.9-.5 1.4-.8.6-.4.6-.4 1.1 0 .4.4.6.5.5 1-.1.4-.5.9-.7 1.3s-.5.9-.8 1.2c-.3.4-.8.4-1.3.5-1.3.3-2.2 1.7-3.1 2.6-1.4 1.4-2.9 2.8-4.3 4.2-.4-.3-.8-.6-1.1-1 1.4-1.3 2.7-2.7 4.1-4zm-15.7-1.9c-.2.1-.1 0 0 0zm9.2 13.1c-.7.5-1.1.3-1.9.4-.7.1-1 .5-1 1.2 0 .6.2 1-.2 1.6-.3.6-.9 1-1.3 1.5-.5.6-1.1 1.1-1.7 1.7-.4.3-.7.7-1.1 1-.4.4-.4.5-1 .4-1-.1-2.1-1.6-2.8-2.3-.4-.4-1.1-1-1-1.7.1-.6 1.3-1.6 1.7-2.1.9-1.1 2.3-2.7 3.8-2.8.8-.1 1.6 0 1.8-.9.2-.6 0-1.1.1-1.7.1-.3.4-.7.7-.9 1.5 1.3 2.9 2.6 4.3 4.1 0 .3-.2.4-.4.5zm-.4-2.5c-.3-.3-.7-.7-1-1 .1-.1.3-.3.4-.4l1 1c-.1.1-.3.3-.4.4zm14.2 7.7c-.1 1.1-.8 2-2.2 1.7-1-.2-1.7-1.1-2.4-1.8-3.6-3.5-7-7-10.5-10.5-1.2-1.2-2.4-2.4-3.7-3.7-.1-.1-.2-.2-.4-.1-2 .6-3.8.7-5.5-.8-1.5-1.2-1.8-3.7-.5-5.2.3.5.6 1 .9 1.5.2.3.4 1.1.8 1.3.7.5 2.3.2 3.1.3.2 0 .4-.1.4-.3.3-.7 1.1-2 1-2.8.1-.4-.3-.8-.5-1.1-.3-.6-.7-1.2-1.1-1.8 1.5-.2 2.8.3 3.9 1.5 1.4 1.6 1.1 3.7-.2 5.3-.1.1-.1.4.1.5 3.7 3.5 7.7 6.8 11.7 10.2 1.6 1.4 3.2 2.7 4.5 4.2.6.6.7.7.6 1.6z"/><path d="m27.5 24.7c-.6-.4-1.3-.1-1.7.4 0 0 0 .1-.1.1 0 0 0 .1-.1.1-.2.6-.1 1.3.5 1.6.6.4 1.4.1 1.9-.5.4-.6.1-1.3-.5-1.7zm-.2 1.5c-.2.2-.6.3-.9.2-.3-.2-.4-.6-.2-.9s.6-.5.9-.2c.4.2.6.5.2.9z"/></svg>
